<?xml version="1.0" encoding="UTF-8" standalone="no"?>
<!-- Created with Inkscape (http://www.inkscape.org/) -->

<svg
   xmlns:dc="http://purl.org/dc/elements/1.1/"
   xmlns:cc="http://creativecommons.org/ns#"
   xmlns:rdf="http://www.w3.org/1999/02/22-rdf-syntax-ns#"
   xmlns:svg="http://www.w3.org/2000/svg"
   xmlns="http://www.w3.org/2000/svg"
   xmlns:sodipodi="http://sodipodi.sourceforge.net/DTD/sodipodi-0.dtd"
   xmlns:inkscape="http://www.inkscape.org/namespaces/inkscape"
   width="100"
   height="100"
   id="svg5786"
   version="1.1"
   inkscape:version="0.48.0 r9654"
   sodipodi:docname="Mat.svg"
   inkscape:export-filename="C:\Users\rick\Documents\AW\Art\Figures\Mat.png"
   inkscape:export-xdpi="89.207237"
   inkscape:export-ydpi="89.207237">
  <defs
     id="defs5788" />
  <sodipodi:namedview
     id="base"
     pagecolor="#ffffff"
     bordercolor="#666666"
     borderopacity="1.0"
     inkscape:pageopacity="0.0"
     inkscape:pageshadow="2"
     inkscape:zoom="6.4532295"
     inkscape:cx="47.105785"
     inkscape:cy="69.154441"
     inkscape:document-units="px"
     inkscape:current-layer="layer1"
     showgrid="false"
     inkscape:window-width="1284"
     inkscape:window-height="690"
     inkscape:window-x="25"
     inkscape:window-y="25"
     inkscape:window-maximized="0"
     showborder="true" />
  <metadata
     id="metadata5791">
    <rdf:RDF>
      <cc:Work
         rdf:about="">
        <dc:format>image/svg+xml</dc:format>
        <dc:type
           rdf:resource="http://purl.org/dc/dcmitype/StillImage" />
        <dc:title></dc:title>
      </cc:Work>
    </rdf:RDF>
  </metadata>
  <g
     inkscape:label="Layer 1"
     inkscape:groupmode="layer"
     id="layer1"
     transform="translate(0,-952.36218)">
    <rect
       style="fill:#0000ff;stroke:#000000;stroke-width:1;stroke-miterlimit:4;stroke-opacity:1;stroke-dasharray:none;stroke-dashoffset:0"
       id="rect2999"
       width="17.964071"
       height="5.7884231"
       x="835.4682"
       y="543.87946"
       transform="matrix(0.59841609,0.80118549,-0.80118549,0.59841609,0,0)" />
    <rect
       style="fill:#0000ff;stroke:#000000;stroke-width:1;stroke-miterlimit:4;stroke-opacity:1;stroke-dasharray:none;stroke-dashoffset:0"
       id="rect2999-8"
       width="17.964071"
       height="5.7884231"
       x="1009.6366"
       y="191.9832"
       transform="matrix(0.24486237,0.96955785,-0.96955785,0.24486237,0,0)" />
    <rect
       style="fill:#0000ff;stroke:#000000;stroke-width:1;stroke-miterlimit:4;stroke-opacity:1;stroke-dasharray:none;stroke-dashoffset:0"
       id="rect2999-3"
       width="17.964071"
       height="5.7884231"
       x="998.67627"
       y="-243.03563"
       transform="matrix(-0.19151511,0.98148967,-0.98148967,-0.19151511,0,0)" />
    <rect
       style="fill:#0000ff;stroke:#000000;stroke-width:1;stroke-miterlimit:4;stroke-opacity:1;stroke-dasharray:none;stroke-dashoffset:0"
       id="rect2999-7"
       width="17.964071"
       height="5.7884231"
       x="866.95654"
       y="-495.8678"
       transform="matrix(-0.4566559,0.8896434,-0.8896434,-0.4566559,0,0)" />
    <path
       transform="translate(0,952.36218)"
       style="fill:#0000ff;stroke:#000000;stroke-width:1;stroke-miterlimit:4;stroke-opacity:1;stroke-dashoffset:0"
       d="m 40.518963,41.716566 24.550899,0.199601 3.992016,37.125749 -33.732536,0 z"
       id="rect2996"
       inkscape:connector-curvature="0"
       sodipodi:nodetypes="ccccc" />
    <path
       sodipodi:type="arc"
       style="fill:#ffaaaa;fill-opacity:1;stroke:#ffd5d5;stroke-width:1;stroke-miterlimit:4;stroke-opacity:1;stroke-dasharray:none;stroke-dashoffset:0"
       id="path2990"
       sodipodi:cx="52.39521"
       sodipodi:cy="30.039921"
       sodipodi:rx="14.471058"
       sodipodi:ry="14.670659"
       d="m 66.866268,30.039921 a 14.471058,14.670659 0 1 1 -28.942116,0 14.471058,14.670659 0 1 1 28.942116,0 z"
       transform="translate(0,952.36218)" />
    <path
       sodipodi:type="arc"
       style="fill:none;stroke:#d35f5f;stroke-width:1;stroke-miterlimit:4;stroke-opacity:1;stroke-dasharray:none;stroke-dashoffset:0"
       id="path2992"
       sodipodi:cx="45.808384"
       sodipodi:cy="30.239521"
       sodipodi:rx="3.8922155"
       sodipodi:ry="2.6946108"
       d="m 49.700599,30.239521 a 3.8922155,2.6946108 0 1 1 -7.784431,0 3.8922155,2.6946108 0 1 1 7.784431,0 z"
       transform="translate(0,952.36218)" />
    <path
       sodipodi:type="arc"
       style="fill:none;stroke:#d35f5f;stroke-width:1;stroke-miterlimit:4;stroke-opacity:1;stroke-dasharray:none;stroke-dashoffset:0"
       id="path2994"
       sodipodi:cx="58.083832"
       sodipodi:cy="30.538921"
       sodipodi:rx="4.1916165"
       sodipodi:ry="2.5948105"
       d="m 62.275448,30.538921 a 4.1916165,2.5948105 0 1 1 -8.383233,0 4.1916165,2.5948105 0 1 1 8.383233,0 z"
       transform="translate(0,952.36218)" />
    <path
       style="fill:none;stroke:#000000;stroke-width:0.60000002;stroke-miterlimit:4;stroke-opacity:1;stroke-dashoffset:0"
       d="m 56.207684,988.57534 c 0.520057,2.53388 -2.860273,2.94306 -4.648835,3.02174 -1.5903,0.07 -3.719068,-0.61454 -3.719068,-3.20769"
       id="path3044"
       inkscape:connector-curvature="0"
       sodipodi:nodetypes="csc" />
    <path
       transform="translate(0,952.36218)"
       style="fill:#222b00;stroke:#c8c4b7;stroke-width:1;stroke-miterlimit:4;stroke-opacity:1;stroke-dashoffset:0"
       d="m 40.134943,19.420192 c 10.362218,-6.520637 15.493238,-6.237198 24.483864,-0.929767 3.342027,1.972896 4.028991,11.312164 4.028991,11.312164 -13.636583,-8.88444 -17.458958,-10.12413 -31.922,-1.239689 0,0 0.350124,-7.217757 3.409145,-9.142708 z"
       id="rect3047"
       inkscape:connector-curvature="0"
       sodipodi:nodetypes="ssccs" />
    <path
       sodipodi:type="arc"
       style="fill:#280b0b;fill-opacity:1;stroke:#000000;stroke-width:1;stroke-miterlimit:4;stroke-opacity:1;stroke-dasharray:none;stroke-dashoffset:0"
       id="path3050"
       sodipodi:cx="44.93874"
       sodipodi:cy="30.654877"
       sodipodi:rx="0.46488351"
       sodipodi:ry="0.38740292"
       d="m 45.403623,30.654877 a 0.46488351,0.38740292 0 1 1 -0.929767,0 0.46488351,0.38740292 0 1 1 0.929767,0 z"
       transform="translate(0,952.36218)" />
    <path
       sodipodi:type="arc"
       style="fill:#280b0b;fill-opacity:1;stroke:#000000;stroke-width:1;stroke-miterlimit:4;stroke-opacity:1;stroke-dasharray:none;stroke-dashoffset:0"
       id="path3052"
       sodipodi:cx="56.71579"
       sodipodi:cy="30.809837"
       sodipodi:rx="0.61984468"
       sodipodi:ry="0.38740292"
       d="m 57.335634,30.809837 a 0.61984468,0.38740292 0 1 1 -1.239689,0 0.61984468,0.38740292 0 1 1 1.239689,0 z"
       transform="translate(0,952.36218)" />
  </g>
</svg>
